<svg width="14" height="16" viewBox="0 0 14 16" fill="none" xmlns="http://www.w3.org/2000/svg">
<path d="M13.9969 6.5604C12.6222 6.56352 11.2788 6.13533 10.1603 5.33521V10.9205C10.1603 11.955 9.84472 12.9645 9.25423 13.8147C8.66374 14.6648 7.82956 15.3149 6.86103 15.6774C5.89251 16.04 4.8365 16.0994 3.83361 15.8431C2.83072 15.5868 1.93092 15.0336 1.24983 14.2553C0.56874 13.4771 0.146963 12.5051 0.0313649 11.4768C-0.0842333 10.4485 0.121969 9.41084 0.61248 8.50133C1.10299 7.59181 1.86219 6.85419 2.78698 6.38537C3.71176 5.91655 4.75215 5.74465 5.77691 5.88529V8.69511C5.30827 8.54821 4.80526 8.55133 4.33974 8.70761C3.87422 8.86388 3.46807 9.16393 3.18376 9.56087C2.89945 9.9578 2.74636 10.4391 2.74948 10.933C2.75261 11.4268 2.91195 11.9019 3.2025 12.2988C3.49306 12.6957 3.90234 12.9895 4.37098 13.1395C4.83962 13.2896 5.34263 13.2896 5.80815 13.1364C6.27367 12.9833 6.68295 12.6864 6.97038 12.2894C7.25781 11.8925 7.41403 11.4112 7.41403 10.9205V0H10.1634C10.1603 0.231286 10.1821 0.465697 10.2228 0.693858C10.3196 1.20331 10.5164 1.69089 10.807 2.12221C11.0975 2.55352 11.4725 2.92233 11.9067 3.20362C12.5285 3.61306 13.2564 3.83185 14 3.83185V6.56352L13.9969 6.5604Z" fill="white"/>
</svg>
